<?xml version="1.0" standalone="no"?>
<!DOCTYPE svg PUBLIC "-//W3C//DTD SVG 20010904//EN"
 "http://www.w3.org/TR/2001/REC-SVG-20010904/DTD/svg10.dtd">
<svg version="1.0" xmlns="http://www.w3.org/2000/svg"
 width="900.000000pt" height="900.000000pt" viewBox="0 0 900.000000 900.000000"
 preserveAspectRatio="xMidYMid meet">
<metadata>
Created by potrace 1.11, written by Peter Selinger 2001-2013
</metadata>
<g transform="translate(0.000000,900.000000) scale(0.100000,-0.100000)"
fill="#000000" stroke="none">
<path d="M4345 8190 c-80 -12 -106 -18 -169 -34 -126 -35 -297 -119 -383 -190
-59 -49 -121 -142 -143 -215 -34 -113 -31 -232 10 -391 5 -19 11 -46 14 -60 6
-31 8 -37 46 -195 32 -136 57 -226 166 -612 36 -128 67 -241 69 -250 2 -10 24
-97 49 -193 58 -223 106 -433 126 -548 5 -30 11 -61 14 -70 3 -10 7 -33 10
-52 3 -19 14 -82 25 -140 11 -58 18 -106 16 -108 -16 -17 -727 526 -915 699
-14 12 -45 41 -70 63 -49 44 -246 225 -289 266 -15 14 -56 52 -92 85 -35 33
-130 121 -209 195 -268 251 -299 277 -383 324 -156 86 -317 94 -472 22 -306
-142 -521 -437 -573 -786 -13 -86 -5 -291 13 -355 50 -173 171 -300 345 -362
112 -40 531 -156 640 -177 14 -2 95 -19 180 -37 85 -17 162 -33 170 -34 182
-24 602 -149 900 -268 69 -27 145 -57 170 -67 84 -33 215 -91 223 -99 9 -9
-30 -25 -473 -203 -318 -127 -496 -196 -810 -313 -654 -243 -863 -322 -1015
-386 -216 -89 -325 -199 -383 -383 -23 -72 -22 -250 2 -340 94 -355 397 -678
719 -766 75 -21 213 -29 275 -16 157 32 303 150 585 471 191 217 224 252 432
461 232 233 487 452 680 585 28 19 52 37 55 40 9 10 268 179 284 185 11 4 14
0 12 -13 -2 -10 -13 -76 -25 -148 -12 -71 -23 -141 -26 -155 -3 -14 -8 -41
-11 -60 -2 -19 -9 -57 -14 -85 -5 -27 -12 -63 -15 -80 -9 -51 -15 -87 -35
-185 -10 -52 -21 -106 -24 -120 -27 -144 -66 -313 -136 -590 -32 -129 -61
-246 -64 -260 -2 -14 -14 -63 -25 -110 -11 -47 -22 -96 -25 -110 -2 -14 -12
-61 -21 -105 -8 -44 -18 -96 -21 -115 -3 -19 -7 -41 -9 -48 -6 -18 -27 -150
-44 -271 -22 -168 17 -326 105 -429 77 -91 279 -198 424 -226 14 -3 36 -8 50
-11 14 -4 86 -8 160 -10 213 -6 377 29 540 116 291 156 380 345 314 669 -20
98 -56 262 -63 288 -5 18 -10 35 -10 37 0 17 -30 147 -78 335 -30 118 -65 256
-78 307 -13 50 -25 96 -28 100 -3 5 -8 20 -11 34 -2 13 -18 80 -36 149 -26
107 -83 352 -96 415 -2 11 -6 29 -8 40 -23 113 -69 342 -86 430 -11 61 -22
121 -25 135 -3 14 -7 37 -11 53 -3 15 -3 27 1 27 7 0 210 -138 257 -174 14
-12 57 -43 95 -71 309 -227 508 -407 844 -765 272 -290 559 -567 679 -657 150
-111 302 -146 475 -106 157 36 328 155 446 311 24 31 46 59 49 62 11 11 79
128 108 185 199 398 140 810 -137 959 -29 16 -221 84 -425 152 -600 198 -1114
381 -1291 459 -16 7 -93 39 -170 70 -77 31 -232 96 -344 143 l-204 87 59 27
c32 15 73 31 89 37 17 5 107 38 200 74 343 130 768 259 964 292 33 6 360 72
391 80 170 41 447 120 505 144 11 5 43 17 70 26 290 100 429 268 424 514 -1
51 -5 110 -10 130 -4 20 -10 50 -12 66 -7 49 -55 181 -88 248 -93 183 -264
372 -414 457 -277 158 -454 176 -641 64 -73 -43 -80 -49 -248 -208 -163 -154
-179 -168 -312 -291 -60 -55 -140 -129 -179 -165 -147 -136 -183 -167 -270
-240 -50 -41 -92 -78 -95 -81 -3 -3 -79 -63 -170 -133 -91 -70 -173 -134 -182
-141 -40 -33 -508 -365 -514 -365 -7 0 0 51 32 245 8 50 17 104 20 120 3 17 7
37 9 45 3 8 7 31 10 50 6 48 12 74 46 228 57 256 92 378 221 767 78 237 186
592 202 665 3 14 17 72 31 130 61 254 27 444 -104 576 -102 103 -279 189 -476
229 -48 10 -305 14 -360 5z"/>
</g>
</svg>
